{"title":"The Hobbit Desolation of Smaug 2013 DVDScr XVID AC3 Hive-CM8","uid":9408077,"size":2147353661,"categoryP":"video","categoryS":"movies","magnet":"?xt=urn:btih:9775fc5b38cef0a7f9131166e3119473f018f791&amp;dn=The+Hobbit+Desolation+of+Smaug+2013+DVDScr+XVID+AC3+Hive-CM8&amp;tr=udp%3A%2F%2Ftracker.openbittorrent.com%3A80&amp;tr=udp%3A%2F%2Fopen.demonii.com%3A1337&amp;tr=udp%3A%2F%2Ftracker.coppersurfer.tk%3A6969&amp;tr=udp%3A%2F%2Fexodus.desync.com%3A6969","seeders":57,"leechers":8,"uploader":"HeroMaster","files":-1,"time":1388207830,"description":":::::::: CM8 PRESENTS ::::::::\n\n\n::::: The Hobbit Desolation of Smaug 2013 DVDScr XVID AC3 Hive-CM8 ::::\n\n\n::Information::\n\n\nIMDB: http://www.imdb.com/title/tt1170358/\n\nVideo: 636x264 @bitrate 1500 2pass\nAudio: English AC3 Stereo 2.0\nSample: yes included\n\nGeneral\nFormat: AVI\nFormat/Info: Audio Video Interleave\nFile size: 1.99 GiB\nDuration: 2h 41mn\nOverall bit rate: 1 767 Kbps\nWriting application: Nandub v1.0rc2\nWriting library: Nandub build 1853/release\n\nVideo\nID: 0\nFormat: MPEG-4 Visual\nFormat profile: Advanced Simple@L5\nFormat settings, BVOP: 2\nFormat settings, QPel: Yes\nFormat settings, GMC: No warppoints\nFormat settings, Matrix: Default (H.263)\nMuxing mode: Packed bitstream\nCodec ID: XVID\nCodec ID/Hint: XviD\nDuration: 2h 41mn\nBit rate: 1 499 Kbps\nWidth: 636 pixels\nHeight: 264 pixels\nDisplay aspect ratio: 2.40:1\nFrame rate: 29.970 fps\nColor space: YUV\nChroma subsampling: 4:2:0\nBit depth: 8 bits\nScan type: Progressive\nCompression mode: Lossy\nBits/(Pixel*Frame): 0.298\nStream size: 1.69 GiB (85%)\nWriting library: XviD 1.2.1 (UTC 2008-12-04)\n\nAudio\nID: 1\nFormat: AC-3\nFormat/Info: Audio Coding 3\nMode extension: CM (complete main)\nFormat settings, Endianness: Big\nCodec ID: 2000\nDuration: 2h 41mn\nBit rate mode: Constant\nBit rate: 256 Kbps\nChannel(s): 2 channels\nChannel positions: Front: L R\nSampling rate: 48.0 KHz\nBit depth: 16 bits\nCompression mode: Lossy\nStream size: 295 MiB (14%)\nAlignment: Split accross interleaves\nInterleave, duration: 33 ms (1.00 video frame)\nInterleave, preload duration: 500 ms\n\n\n::Notes::\n\n\nSource: DVDSCR to mp4 Encode\nEncode:\nwell, 4 days earlier than last year!!!\ngot that Encode from the disc,quality was still nice, had security stuff upfront \n--&gt; removed video had a 3 line security msg text at the bottom, nothing we \nhaven't read before\n2 lines were in the black bar area below so they got cropped away anyway\n1 line is still showin 3 times during the movie, near start,1h,2h mark. nothing fancy, besides that clear screener\nVideo was a bit dark and not that sharp, so i added brightness, sharpness,\ncontrast, and enhanced colours a bit\nResolution was 640x3something and not 720x304 when i got it, so no reason for me \nto upscale it, would only loose more quality\ndidnt go for HQ Tag, since i couldnt do it from the original disc myself\nif i do get the full disc i will do a HQ version again, but i doubt it will show \nup anywhere\nAudio was sweet English Stereo, nothing to do on that part\ngot nice and will do me till i get full disc or retail\nenjoy\n\n\n::Greetz and Respect::\n\n\nALL CREDIT Goes to HIVE for Encoding and ABG for Distribution.\n\n\n::Poster::\n\n &lt;a href=&quot;\nhttp://i.imgur.com/kAmaDTe.png&quot; rel=&quot;nofollow&quot; target=&quot;_NEW&quot;&gt;\nhttp://i.imgur.com/kAmaDTe.png&lt;/a&gt;\n\n\n::Screenshots::\n\n &lt;a href=&quot;\nhttp://i.imgur.com/7ZxYwHP.png&quot; rel=&quot;nofollow&quot; target=&quot;_NEW&quot;&gt;\nhttp://i.imgur.com/7ZxYwHP.png&lt;/a&gt;\n\n &lt;a href=&quot;\nhttp://i.imgur.com/IfG58sN.png&quot; rel=&quot;nofollow&quot; target=&quot;_NEW&quot;&gt;\nhttp://i.imgur.com/IfG58sN.png&lt;/a&gt;\n\n &lt;a href=&quot;\nhttp://i.imgur.com/i31wIp8.png&quot; rel=&quot;nofollow&quot; target=&quot;_NEW&quot;&gt;\nhttp://i.imgur.com/i31wIp8.png&lt;/a&gt;\n\n\nSEED AND ENJOY!","torrent":{"xt":"urn:btih:9775fc5b38cef0a7f9131166e3119473f018f791","amp;dn":"The+Hobbit+Desolation+of+Smaug+2013+DVDScr+XVID+AC3+Hive-CM8","amp;tr":["udp%3A%2F%2Ftracker.openbittorrent.com%3A80","udp%3A%2F%2Fopen.demonii.com%3A1337","udp%3A%2F%2Ftracker.coppersurfer.tk%3A6969","udp%3A%2F%2Fexodus.desync.com%3A6969"],"infoHash":"9775fc5b38cef0a7f9131166e3119473f018f791","infoHashBuffer":{"type":"Buffer","data":[151,117,252,91,56,206,240,167,249,19,17,102,227,17,148,115,240,24,247,145]},"announce":[],"urlList":[]}}